<?xml version="1.0" encoding="UTF-8"?>
<!DOCTYPE svg PUBLIC "-//W3C//DTD SVG 1.1//EN" "http://www.w3.org/Graphics/SVG/1.1/DTD/svg11.dtd">
<svg xmlns="http://www.w3.org/2000/svg" version="1.1" width="359px" height="399px" style="shape-rendering:geometricPrecision; text-rendering:geometricPrecision; image-rendering:optimizeQuality; fill-rule:evenodd; clip-rule:evenodd" xmlns:xlink="http://www.w3.org/1999/xlink">
<g><path style="opacity:1" fill="currentColor" d="M -0.5,-0.5 C 118.5,-0.5 237.5,-0.5 356.5,-0.5C 313.421,16.1975 270.088,32.5308 226.5,48.5C 225.5,148.831 225.167,249.164 225.5,349.5C 246.5,349.5 267.5,349.5 288.5,349.5C 288.333,256.166 288.5,162.833 289,69.5C 312.035,46.2984 335.201,23.2984 358.5,0.5C 358.5,133.167 358.5,265.833 358.5,398.5C 239.5,398.5 120.5,398.5 1.5,398.5C 44.5791,381.803 87.9124,365.469 131.5,349.5C 132.5,249.169 132.833,148.836 132.5,48.5C 111.5,48.5 90.5,48.5 69.5,48.5C 69.6667,141.834 69.5,235.167 69,328.5C 45.9653,351.702 22.7986,374.702 -0.5,397.5C -0.5,264.833 -0.5,132.167 -0.5,-0.5 Z"/></g>
<g><path style="opacity:1" fill="#ffffff" d="M 356.5,-0.5 C 357.167,-0.5 357.833,-0.5 358.5,-0.5C 358.5,-0.166667 358.5,0.166667 358.5,0.5C 335.201,23.2984 312.035,46.2984 289,69.5C 288.5,162.833 288.333,256.166 288.5,349.5C 267.5,349.5 246.5,349.5 225.5,349.5C 225.167,249.164 225.5,148.831 226.5,48.5C 270.088,32.5308 313.421,16.1975 356.5,-0.5 Z"/></g>
<g><path style="opacity:1" fill="#ffffff" d="M 1.5,398.5 C 0.833333,398.5 0.166667,398.5 -0.5,398.5C -0.5,398.167 -0.5,397.833 -0.5,397.5C 22.7986,374.702 45.9653,351.702 69,328.5C 69.5,235.167 69.6667,141.834 69.5,48.5C 90.5,48.5 111.5,48.5 132.5,48.5C 132.833,148.836 132.5,249.169 131.5,349.5C 87.9124,365.469 44.5791,381.803 1.5,398.5 Z"/></g>
<g><path style="opacity:1" fill="#ffffff" d="M 147.5,48.5 C 168.5,48.5 189.5,48.5 210.5,48.5C 210.667,81.835 210.5,115.168 210,148.5C 189.333,169.167 168.667,189.833 148,210.5C 147.5,156.501 147.333,102.501 147.5,48.5 Z"/></g>
<g><path style="opacity:1" fill="#ffffff" d="M 209.5,187.5 C 210.499,241.331 210.832,295.331 210.5,349.5C 189.5,349.5 168.5,349.5 147.5,349.5C 147.333,316.165 147.5,282.832 148,249.5C 168.702,228.965 189.202,208.299 209.5,187.5 Z"/></g>
</svg>
